{"title":"Dragon Ball Z: Resurrection 'F' (EngDub) 720p x264 Download","magnet":"magnet:?xt=urn:btih:cc8c13358eb53b282b0c2cd6bf2fcc0527d7c06b&dn=Dragon+Ball+Z%3A+Resurrection+%27F%27+%28EngDub%29+720p+x264+Download&tr=udp%3A%2F%2Ftracker.leechers-paradise.org%3A6969&tr=udp%3A%2F%2Fzer0day.ch%3A1337&tr=udp%3A%2F%2Fopen.demonii.com%3A1337&tr=udp%3A%2F%2Ftracker.coppersurfer.tk%3A6969&tr=udp%3A%2F%2Fexodus.desync.com%3A6969","uploader":"digimaza","categoryP":"video","categoryS":"hd___movies","size":"1037756124","seeders":"5","leechers":"14","description":"Dragon Ball Z Movie 15: Fukkatsu no F  <a href=\"\nhttps://s3.postimg.org/u5fcrh31f/dbzf_digimaza.png\" rel=\"nofollow\" target=\"_NEW\">\nhttps://s3.postimg.org/u5fcrh31f/dbzf_digimaza.png</a>\r\n\r\nOne peaceful day on Earth, two remnants of Frieza&apos;s army named Sorbet and Tagoma arrive searching for the Dragon Balls with the aim of reviving Frieza. They succeed, and Frieza subsequently seeks revenge on the Saiyans.\r\n\r\n..::File Specs::.. \r\nGeneral \r\nFormat : Matroska \r\nFormat version : Version 4 / Version 2 \r\nFile size : 990 MiB \r\nDuration : 1 h 33 min \r\nOverall bit rate : 1 473 kb/s \r\n\r\nVideo \r\nID : 1 \r\nFormat : AVC \r\nFormat/Info : Advanced Video Codec \r\nFormat profile : <a class=\"__cf_email__\" href=\"/cdn-cgi/l/email-protection\" data-cfemail=\"6f270608072f235c415e\">[email&#xA0;protected]</a><script data-cfhash=\"f9e31\" type=\"text/javascript\">/* <![CDATA[ */!function(t,e,r,n,c,a,p){try{t=document.currentScript||function(){for(t=document.getElementsByTagName('script'),e=t.length;e--;)if(t[e].getAttribute('data-cfhash'))return t[e]}();if(t&&(c=t.previousSibling)){p=t.parentNode;if(a=c.getAttribute('data-cfemail')){for(e='',r='0x'+a.substr(0,2)|0,n=2;a.length-n;n+=2)e+='%'+('0'+('0x'+a.substr(n,2)^r).toString(16)).slice(-2);p.replaceChild(document.createTextNode(decodeURIComponent(e)),c)}p.removeChild(t)}}catch(u){}}()/* ]]> */</script> \r\nFormat settings, CABAC : Yes \r\nFormat settings, ReFrames : 2 frames \r\nCodec ID : V_MPEG4/ISO/AVC \r\nDuration : 1 h 33 min \r\nBit rate : 1 280 kb/s \r\nWidth : 1 920 pixels \r\nHeight : 1 080 pixels \r\nDisplay aspect ratio : 16:9 \r\nFrame rate mode : Constant \r\nFrame rate : 23.976 (24000/1001) FPS \r\nColor space : YUV \r\nChroma subsampling : 4:2:0 \r\nBit depth : 8 bits \r\nScan type : Progressive \r\nBits/(Pixel*Frame) : 0.026 \r\nStream size : 859 MiB (87%) \r\nWriting library : x264 core 142 r2491 24e4fed \r\nForced : No \r\nColor range : Limited \r\n\r\nAudio \r\nID : 2 \r\nFormat : AAC \r\nFormat/Info : Advanced Audio Codec \r\nFormat profile : LC \r\nCodec ID : A_AAC \r\nDuration : 1 h 33 min \r\nBit rate : 192 kb/s \r\nChannel(s) : 2 channels \r\nChannel positions : Front: L R \r\nSampling rate : 44.1 kHz \r\nFrame rate : 43.066 FPS (1024 spf) \r\nCompression mode : Lossy \r\nStream size : 129 MiB (13%) \r\n\r\n..::ScreenShots::.. \r\n <a href=\"\nhttps://s12.postimg.org/he3davryl/vlcsnap-2017-07-12-19h33m04s840.png\" rel=\"nofollow\" target=\"_NEW\">\nhttps://s12.postimg.org/he3davryl/vlcsnap-2017-07-12-19h33m04s840.png</a>  <a href=\"\nhttps://s12.postimg.org/8lmen76tp/vlcsnap-2017-07-12-19h33m10s615.png\" rel=\"nofollow\" target=\"_NEW\">\nhttps://s12.postimg.org/8lmen76tp/vlcsnap-2017-07-12-19h33m10s615.png</a>  <a href=\"\nhttps://s12.postimg.org/630pmil3h/vlcsnap-2017-07-12-19h33m22s971.png\" rel=\"nofollow\" target=\"_NEW\">\nhttps://s12.postimg.org/630pmil3h/vlcsnap-2017-07-12-19h33m22s971.png</a> \r\n\r\n================================================================ \r\nSeed Seed Seed Seed Seed Seed Seed Seed Seed Seed Seed Seed Seed \r\nTo direct download or Watch Online this file, Visit. \r\r\nSeed Seed Seed Seed Seed Seed Seed Seed Seed Seed Seed Seed Seed \r\n================================================================","last_updated":"2017-07-13T12:04:51.809Z","parsed":{"xt":"urn:btih:cc8c13358eb53b282b0c2cd6bf2fcc0527d7c06b","dn":"Dragon Ball Z: Resurrection 'F' (EngDub) 720p x264 Download","tr":["udp://exodus.desync.com:6969","udp://open.demonii.com:1337","udp://tracker.coppersurfer.tk:6969","udp://tracker.leechers-paradise.org:6969","udp://zer0day.ch:1337"],"infoHash":"cc8c13358eb53b282b0c2cd6bf2fcc0527d7c06b","infoHashBuffer":{"type":"Buffer","data":[204,140,19,53,142,181,59,40,43,12,44,214,191,47,204,5,39,215,192,107]},"name":"Dragon Ball Z: Resurrection 'F' (EngDub) 720p x264 Download","announce":["udp://exodus.desync.com:6969","udp://open.demonii.com:1337","udp://tracker.coppersurfer.tk:6969","udp://tracker.leechers-paradise.org:6969","udp://zer0day.ch:1337"],"urlList":[]}}